<mxfile host="app.diagrams.net" agent="Mozilla/5.0 (Windows NT 10.0; Win64; x64) AppleWebKit/537.36 (KHTML, like Gecko) Chrome/131.0.0.0 Safari/537.36 Edg/131.0.0.0" version="25.0.1">
  <diagram id="C5RBs43oDa-KdzZeNtuy" name="Page-1">
    <mxGraphModel dx="1699" dy="477" grid="1" gridSize="10" guides="1" tooltips="1" connect="1" arrows="1" fold="1" page="1" pageScale="1" pageWidth="827" pageHeight="1169" math="0" shadow="0">
      <root>
        <mxCell id="WIyWlLk6GJQsqaUBKTNV-0" />
        <mxCell id="WIyWlLk6GJQsqaUBKTNV-1" parent="WIyWlLk6GJQsqaUBKTNV-0" />
        <mxCell id="mvioNwK95yMqdUQ73LqQ-36" value="" style="swimlane;fontFamily=Sarabun;fontSource=https%3A%2F%2Ffonts.googleapis.com%2Fcss%3Ffamily%3DSarabun;" parent="WIyWlLk6GJQsqaUBKTNV-1" vertex="1">
          <mxGeometry x="-447" y="340" width="1720" height="5300" as="geometry" />
        </mxCell>
        <mxCell id="mvioNwK95yMqdUQ73LqQ-35" value="&lt;font data-font-src=&quot;https://fonts.googleapis.com/css?family=Sarabun&quot; face=&quot;Sarabun&quot;&gt;Start&lt;/font&gt;" style="ellipse;whiteSpace=wrap;html=1;" parent="mvioNwK95yMqdUQ73LqQ-36" vertex="1">
          <mxGeometry x="255" y="40" width="130" height="30" as="geometry" />
        </mxCell>
        <mxCell id="QNhVIbcrn-Icenjs99R--4" style="edgeStyle=orthogonalEdgeStyle;rounded=0;orthogonalLoop=1;jettySize=auto;html=1;entryX=0.473;entryY=0.019;entryDx=0;entryDy=0;entryPerimeter=0;" parent="mvioNwK95yMqdUQ73LqQ-36" source="mvioNwK95yMqdUQ73LqQ-35" edge="1">
          <mxGeometry relative="1" as="geometry">
            <mxPoint x="320.3299999999999" y="111.71000000000004" as="targetPoint" />
          </mxGeometry>
        </mxCell>
        <mxCell id="jUQn-CAyBp6RVLcqWILb-2" style="edgeStyle=orthogonalEdgeStyle;rounded=0;orthogonalLoop=1;jettySize=auto;html=1;" parent="mvioNwK95yMqdUQ73LqQ-36" source="jUQn-CAyBp6RVLcqWILb-1" edge="1">
          <mxGeometry relative="1" as="geometry">
            <mxPoint x="321" y="220" as="targetPoint" />
          </mxGeometry>
        </mxCell>
        <mxCell id="jUQn-CAyBp6RVLcqWILb-1" value="Declare&lt;div&gt;a1,a2,b1,b2&lt;/div&gt;" style="rounded=0;whiteSpace=wrap;html=1;" parent="mvioNwK95yMqdUQ73LqQ-36" vertex="1">
          <mxGeometry x="261" y="112" width="120" height="60" as="geometry" />
        </mxCell>
        <mxCell id="7AO03h98FQrdWWPqjMZw-2" style="edgeStyle=orthogonalEdgeStyle;rounded=0;orthogonalLoop=1;jettySize=auto;html=1;" edge="1" parent="mvioNwK95yMqdUQ73LqQ-36" source="7AO03h98FQrdWWPqjMZw-0">
          <mxGeometry relative="1" as="geometry">
            <mxPoint x="320" y="340" as="targetPoint" />
          </mxGeometry>
        </mxCell>
        <mxCell id="7AO03h98FQrdWWPqjMZw-0" value="Declare&lt;div&gt;a_mid, b_mid&lt;/div&gt;" style="rounded=0;whiteSpace=wrap;html=1;" vertex="1" parent="mvioNwK95yMqdUQ73LqQ-36">
          <mxGeometry x="260" y="220" width="120" height="60" as="geometry" />
        </mxCell>
        <mxCell id="7AO03h98FQrdWWPqjMZw-5" style="edgeStyle=orthogonalEdgeStyle;rounded=0;orthogonalLoop=1;jettySize=auto;html=1;" edge="1" parent="mvioNwK95yMqdUQ73LqQ-36" source="7AO03h98FQrdWWPqjMZw-1">
          <mxGeometry relative="1" as="geometry">
            <mxPoint x="320" y="470" as="targetPoint" />
          </mxGeometry>
        </mxCell>
        <mxCell id="7AO03h98FQrdWWPqjMZw-1" value="Display &quot;Input A point&quot;" style="shape=parallelogram;perimeter=parallelogramPerimeter;whiteSpace=wrap;html=1;fixedSize=1;" vertex="1" parent="mvioNwK95yMqdUQ73LqQ-36">
          <mxGeometry x="228.5" y="340" width="183" height="60" as="geometry" />
        </mxCell>
        <mxCell id="7AO03h98FQrdWWPqjMZw-3" style="edgeStyle=orthogonalEdgeStyle;rounded=0;orthogonalLoop=1;jettySize=auto;html=1;exitX=0.5;exitY=1;exitDx=0;exitDy=0;" edge="1" parent="mvioNwK95yMqdUQ73LqQ-36" source="7AO03h98FQrdWWPqjMZw-1" target="7AO03h98FQrdWWPqjMZw-1">
          <mxGeometry relative="1" as="geometry" />
        </mxCell>
        <mxCell id="7AO03h98FQrdWWPqjMZw-6" style="edgeStyle=orthogonalEdgeStyle;rounded=0;orthogonalLoop=1;jettySize=auto;html=1;" edge="1" parent="mvioNwK95yMqdUQ73LqQ-36" source="7AO03h98FQrdWWPqjMZw-4">
          <mxGeometry relative="1" as="geometry">
            <mxPoint x="321" y="580" as="targetPoint" />
          </mxGeometry>
        </mxCell>
        <mxCell id="7AO03h98FQrdWWPqjMZw-4" value="Read a1,b1" style="shape=parallelogram;perimeter=parallelogramPerimeter;whiteSpace=wrap;html=1;fixedSize=1;" vertex="1" parent="mvioNwK95yMqdUQ73LqQ-36">
          <mxGeometry x="229.5" y="470" width="183" height="60" as="geometry" />
        </mxCell>
        <mxCell id="7AO03h98FQrdWWPqjMZw-7" style="edgeStyle=orthogonalEdgeStyle;rounded=0;orthogonalLoop=1;jettySize=auto;html=1;" edge="1" parent="mvioNwK95yMqdUQ73LqQ-36" source="7AO03h98FQrdWWPqjMZw-8">
          <mxGeometry relative="1" as="geometry">
            <mxPoint x="321" y="710" as="targetPoint" />
          </mxGeometry>
        </mxCell>
        <mxCell id="7AO03h98FQrdWWPqjMZw-8" value="Display &quot;Input B point&quot;" style="shape=parallelogram;perimeter=parallelogramPerimeter;whiteSpace=wrap;html=1;fixedSize=1;" vertex="1" parent="mvioNwK95yMqdUQ73LqQ-36">
          <mxGeometry x="229.5" y="580" width="183" height="60" as="geometry" />
        </mxCell>
        <mxCell id="7AO03h98FQrdWWPqjMZw-9" style="edgeStyle=orthogonalEdgeStyle;rounded=0;orthogonalLoop=1;jettySize=auto;html=1;exitX=0.5;exitY=1;exitDx=0;exitDy=0;" edge="1" parent="mvioNwK95yMqdUQ73LqQ-36" source="7AO03h98FQrdWWPqjMZw-8" target="7AO03h98FQrdWWPqjMZw-8">
          <mxGeometry relative="1" as="geometry" />
        </mxCell>
        <mxCell id="7AO03h98FQrdWWPqjMZw-10" style="edgeStyle=orthogonalEdgeStyle;rounded=0;orthogonalLoop=1;jettySize=auto;html=1;" edge="1" parent="mvioNwK95yMqdUQ73LqQ-36" source="7AO03h98FQrdWWPqjMZw-11">
          <mxGeometry relative="1" as="geometry">
            <mxPoint x="322" y="820" as="targetPoint" />
          </mxGeometry>
        </mxCell>
        <mxCell id="7AO03h98FQrdWWPqjMZw-11" value="Read a2,b2" style="shape=parallelogram;perimeter=parallelogramPerimeter;whiteSpace=wrap;html=1;fixedSize=1;" vertex="1" parent="mvioNwK95yMqdUQ73LqQ-36">
          <mxGeometry x="230.5" y="710" width="183" height="60" as="geometry" />
        </mxCell>
        <mxCell id="7AO03h98FQrdWWPqjMZw-14" style="edgeStyle=orthogonalEdgeStyle;rounded=0;orthogonalLoop=1;jettySize=auto;html=1;" edge="1" parent="mvioNwK95yMqdUQ73LqQ-36" source="7AO03h98FQrdWWPqjMZw-12">
          <mxGeometry relative="1" as="geometry">
            <mxPoint x="320" y="949.9999999999998" as="targetPoint" />
          </mxGeometry>
        </mxCell>
        <mxCell id="7AO03h98FQrdWWPqjMZw-12" value="&lt;div&gt;Calculate mid point&lt;/div&gt;(a1 + a2) / 2 store in a_mid&amp;nbsp;&lt;div&gt;(b1 + b2) / 2 store in b_mid&lt;/div&gt;" style="rounded=0;whiteSpace=wrap;html=1;" vertex="1" parent="mvioNwK95yMqdUQ73LqQ-36">
          <mxGeometry x="218.5" y="820" width="203" height="81" as="geometry" />
        </mxCell>
        <mxCell id="7AO03h98FQrdWWPqjMZw-16" style="edgeStyle=orthogonalEdgeStyle;rounded=0;orthogonalLoop=1;jettySize=auto;html=1;" edge="1" parent="mvioNwK95yMqdUQ73LqQ-36" source="7AO03h98FQrdWWPqjMZw-13">
          <mxGeometry relative="1" as="geometry">
            <mxPoint x="322" y="1060" as="targetPoint" />
          </mxGeometry>
        </mxCell>
        <mxCell id="7AO03h98FQrdWWPqjMZw-13" value="Display &quot;Mid Point of A and B is&quot; + a_mid + b_mid" style="shape=parallelogram;perimeter=parallelogramPerimeter;whiteSpace=wrap;html=1;fixedSize=1;" vertex="1" parent="mvioNwK95yMqdUQ73LqQ-36">
          <mxGeometry x="185.5" y="950" width="273" height="60" as="geometry" />
        </mxCell>
        <mxCell id="7AO03h98FQrdWWPqjMZw-15" value="&lt;font data-font-src=&quot;https://fonts.googleapis.com/css?family=Sarabun&quot; face=&quot;Sarabun&quot;&gt;END&lt;/font&gt;" style="ellipse;whiteSpace=wrap;html=1;" vertex="1" parent="mvioNwK95yMqdUQ73LqQ-36">
          <mxGeometry x="255" y="1060" width="130" height="30" as="geometry" />
        </mxCell>
      </root>
    </mxGraphModel>
  </diagram>
</mxfile>
